<svg width="18" height="13" viewBox="0 0 18 13" fill="#eab308" xmlns="http://www.w3.org/2000/svg">
<path d="M15.5313 7.32669H0.817439C0.359673 7.32669 0 6.97008 0 6.51622C0 6.06236 0.359673 5.70575 0.817439 5.70575H15.5313C15.9891 5.70575 16.3488 6.06236 16.3488 6.51622C16.3488 6.97008 15.9891 7.32669 15.5313 7.32669Z" fill=""/>
<path d="M11.4442 12.9999C11.337 13.0012 11.2307 12.9803 11.1322 12.9384C11.0336 12.8965 10.945 12.8347 10.872 12.7568C10.545 12.4326 10.545 11.9301 10.872 11.6059L16.0219 6.49997L10.872 1.39401C10.545 1.06982 10.545 0.567329 10.872 0.243141C11.199 -0.081047 11.7058 -0.081047 12.0328 0.243141L17.7548 5.91643C18.0818 6.24062 18.0818 6.74311 17.7548 7.0673L12.0328 12.7406C11.8693 12.9027 11.6567 12.9837 11.4606 12.9837L11.4442 12.9999Z" fill=""/>
</svg>
