<svg width="39" height="28" viewBox="0 0 39 28" fill="#eab308" xmlns="http://www.w3.org/2000/svg">
<path d="M5.31742 12.2192L37.0089 12.2192C37.9949 12.2192 38.7695 12.9873 38.7695 13.9648C38.7695 14.9424 37.9949 15.7104 37.0089 15.7104L5.31742 15.7104C4.33147 15.7104 3.55679 14.9424 3.55679 13.9648C3.55679 12.9873 4.33147 12.2192 5.31742 12.2192Z" fill="#eab308"/>
<path d="M14.1203 0.000120163C14.3513 -0.0026722 14.5802 0.0424824 14.7925 0.132673C15.0047 0.222864 15.1956 0.356098 15.3528 0.523808C16.057 1.22206 16.057 2.30435 15.3528 3.0026L4.26077 14.0001L15.3528 24.9975C16.057 25.6958 16.057 26.7781 15.3528 27.4763C14.6485 28.1746 13.5569 28.1746 12.8527 27.4763L0.528226 15.2569C-0.176029 14.5587 -0.176029 13.4764 0.528226 12.7781L12.8527 0.558722C13.2048 0.209597 13.6626 0.0350323 14.0851 0.0350323L14.1203 0.000120163Z" fill="#eab308"/>
</svg>
