<svg width="61" height="49" viewBox="0 0 61 49" fill="none" xmlns="http://www.w3.org/2000/svg">
<path d="M5.1751 7.01925C9.45291 2.36119 15.926 0 24.4115 0H27.4605V8.63319L25.0091 9.12625C20.8319 9.96537 17.9262 11.6161 16.3712 14.0385C15.5596 15.3434 15.0994 16.8377 15.0357 18.375H24.4115C25.2202 18.375 25.9957 18.6977 26.5675 19.272C27.1393 19.8463 27.4605 20.6253 27.4605 21.4375V42.875C27.4605 46.2529 24.7256 49 21.3625 49H3.06821C2.25956 49 1.48402 48.6773 0.912215 48.103C0.340409 47.5287 0.0191719 46.7497 0.0191719 45.9375V30.625L0.028319 21.6856C0.000877673 21.3456 -0.57844 13.2912 5.1751 7.01925ZM54.9019 49H36.6077C35.799 49 35.0235 48.6773 34.4517 48.103C33.8799 47.5287 33.5586 46.7497 33.5586 45.9375V30.625L33.5678 21.6856C33.5403 21.3456 32.961 13.2912 38.7146 7.01925C42.9924 2.36119 49.4655 0 57.951 0H61V8.63319L58.5486 9.12625C54.3714 9.96537 51.4656 11.6161 49.9106 14.0385C49.099 15.3434 48.6388 16.8377 48.5751 18.375H57.951C58.7596 18.375 59.5352 18.6977 60.107 19.272C60.6788 19.8463 61 20.6253 61 21.4375V42.875C61 46.2529 58.265 49 54.9019 49Z" fill="#EABB49"/>
</svg>
