<svg width="20" height="20" viewBox="0 0 20 20" fill="none" xmlns="http://www.w3.org/2000/svg">
<path fill-rule="evenodd" clip-rule="evenodd" d="M10.6377 5.728V7.99067C11.0819 7.2689 11.6942 6.68253 12.4147 6.28894C13.1351 5.89536 13.939 5.70804 14.7477 5.74533C19.0665 5.74533 20.0002 8.62533 20.0002 12.372V20H16.0002V13.2373C16.0002 11.624 15.6952 9.54933 13.3402 9.54933C11.0565 9.54933 10.6665 11.3053 10.6665 13.1173V20H6.67896V5.728H10.6377ZM4.0002 2.14133C3.99971 2.564 3.88225 2.97711 3.66255 3.32887C3.44286 3.68063 3.13069 3.95537 2.7652 4.11867C2.39986 4.28064 1.99761 4.32301 1.60962 4.24038C1.22164 4.15776 0.865472 3.95387 0.586454 3.65467C0.306911 3.35528 0.116597 2.97441 0.0394445 2.55996C-0.0377084 2.1455 0.00174494 1.71597 0.152842 1.32537C0.30394 0.934769 0.559936 0.600542 0.888638 0.364719C1.21734 0.128895 1.60407 0.00200321 2.0002 0C2.26348 -1.97452e-06 2.52417 0.0554421 2.76731 0.163152C3.01045 0.270862 3.23126 0.428718 3.41708 0.627665C3.60289 0.826611 3.75005 1.06273 3.85012 1.32248C3.95019 1.58224 4.00119 1.86051 4.0002 2.14133Z" fill="white"/>
<path d="M4 5.74533H0V20H4V5.74533Z" fill="white"/>
</svg>
